<mxfile host="app.diagrams.net" modified="2024-05-13T16:54:08.325Z" agent="Mozilla/5.0 (X11; Linux x86_64) AppleWebKit/537.36 (KHTML, like Gecko) Chrome/123.0.0.0 Safari/537.36 OPR/109.0.0.0" version="24.4.0" etag="VrbU7HpHVSanZaRlXCMP" type="github">
  <diagram name="Page-1" id="mZo6sRiN5SiCfL1NPX2f">
    <mxGraphModel>
      <root>
        <mxCell id="0" />
        <mxCell id="1" parent="0" />
      </root>
    </mxGraphModel>
  </diagram>
</mxfile>
